# xmcd
#
# Track frame offsets: 
#        150
#        10095
#        21520
#        32595
#        45815
#        56825
#        69695
#        82150
#        94470
#        107535
#        117350
#        128370
#        140710
#        153120
#        168310
#        179170
#        191590
#        202460
#        215495
#        226210
#
# Disc length: 3179 seconds
#
# Revision: 2
# Processed by: cddbd v1.5.2PL0 Copyright (c) Steve Scherf et al.
# Submitted via: ExactAudioCopy v0.99pb3
#
DISCID=1f0c6914
DTITLE=Various Artist - Just Call Me Hank
DYEAR=2004
DGENRE=Country
TTITLE0=Hank Locklin - Please Help Me, I'm Falling
TTITLE1=Hank Snow - (Now and Then There's) A Fool Such as I
TTITLE2=Hank Thompson - Humpty Dumpty Heart
TTITLE3=Hank Williams - Jambalaya (On the Bayou)
TTITLE4=Hank Locklin - Send Me the Pillow You Dream On
TTITLE5=Hank Snow - I Wonder Where You Are Tonight
TTITLE6=Hank Thompson - Wild Side of Life
TTITLE7=Hank Williams - Your Cheatin' Heart
TTITLE8=Hank Snow - I'm Movin' On
TTITLE9=Hank Locklin - Geisha Girl
TTITLE10=Hank Thompson - Squaws Along the Yukon
TTITLE11=Hank Williams - Half as Much
TTITLE12=Hank Locklin - It's a Little More Like Heaven
TTITLE13=Hank Snow - Nobody's Child
TTITLE14=Hank Thompson - Swing Wide Your Gates of Love
TTITLE15=Hank Williams - Take These Chains From My Heart
TTITLE16=Hank Locklin - Let Me Be the One
TTITLE17=Hank Snow - The Golden Rocket
TTITLE18=Hank Thompson - Wake Up Irene
TTITLE19=Hank Williams - Settin' the Woods on Fire
EXTD=
EXTT0=
EXTT1=
EXTT2=
EXTT3=
EXTT4=
EXTT5=
EXTT6=
EXTT7=
EXTT8=
EXTT9=
EXTT10=
EXTT11=
EXTT12=
EXTT13=
EXTT14=
EXTT15=
EXTT16=
EXTT17=
EXTT18=
EXTT19=
PLAYORDER=
